PathFileType	4	(X/Y/Z)	E:\Qualisys_Data\Carbon_Farble_Plate\Data\Amateur_Runner\S14\T2\S14T2V25_c3d.trc
DataRate	CameraRate	NumFrames	NumMarkers	Units	OrigDataRate	OrigDataStartFrame	OrigNumFrames
200.000000	200.000000	4	39	mm	200.000000	118	317
Frame#	Time	LSHO			RSHO			LICST			RICST			LASIS			LHEEL			RASIS			LTROC			RTROC			SACR			LTH1			LSK4			LTH2			LTH3			RHM5			LSK2			LTH4			RTH1			LTOE			RTH2			RTH3			RTH4			LLEP			RLEP			LSK1			LSK3			RSK1			LHM5			RSK2			LFT1			RSK3			RSK4			LLME			RLME			RTOE			RHEEL			RFT1			RFT2			LFT2			
		X1	Y1	Z1	X2	Y2	Z2	X3	Y3	Z3	X4	Y4	Z4	X5	Y5	Z5	X6	Y6	Z6	X7	Y7	Z7	X8	Y8	Z8	X9	Y9	Z9	X10	Y10	Z10	X11	Y11	Z11	X12	Y12	Z12	X13	Y13	Z13	X14	Y14	Z14	X15	Y15	Z15	X16	Y16	Z16	X17	Y17	Z17	X18	Y18	Z18	X19	Y19	Z19	X20	Y20	Z20	X21	Y21	Z21	X22	Y22	Z22	X23	Y23	Z23	X24	Y24	Z24	X25	Y25	Z25	X26	Y26	Z26	X27	Y27	Z27	X28	Y28	Z28	X29	Y29	Z29	X30	Y30	Z30	X31	Y31	Z31	X32	Y32	Z32	X33	Y33	Z33	X34	Y34	Z34	X35	Y35	Z35	X36	Y36	Z36	X37	Y37	Z37	X38	Y38	Z38	X39	Y39	Z39	

119	0.59	-980.6909790039062	1387.7705078125	-547.44482421875	-930.4013671875	1392.897094726562	-240.7771148681641	-1049.447875976562	954.2925415039062	-510.9346008300781	-989.3178100585938	947.3728637695312	-235.0519561767578	-1002.757690429688	904.6530151367188	-494.4776306152344	-1354.636352539062	119.1030426025391	-335.48046875	-969.1488647460938	905.1635131835938	-259.7698974609375	-1144.52197265625	842.0400390625	-513.987548828125	-1100.639526367188	826.9609375	-190.4720306396484	-1156.988891601562	962.1135864257812	-359.0064086914062	-1061.260986328125	608.5277099609375	-514.279541015625	-1223.446044921875	293.2616271972656	-439.487548828125	-1134.068359375	606.5965576171875	-488.0789184570312	-1045.1328125	513.7525634765625	-485.4990234375	-1298.311279296875	298.6871948242188	-202.8896636962891	-1169.959228515625	372.5827026367188	-468.0957946777344	-1121.89013671875	512.0936889648438	-464.1039733886719	-890.3328247070312	663.8333740234375	-199.8629150390625	-1110.97900390625	62.30960464477539	-387.8712768554688	-961.9664916992188	635.4181518554688	-182.2547912597656	-853.3244018554688	571.8153076171875	-221.6661224365234	-928.7044677734376	540.585693359375	-197.5390930175781	-1088.910400390625	437.1675720214844	-471.3751831054688	-890.601318359375	489.5243530273438	-203.0591125488281	-1099.76025390625	330.0459289550781	-459.7823486328125	-1155.82373046875	247.8028717041016	-434.4195861816406	-979.265380859375	431.260009765625	-206.8092498779297	-1185.243286132812	60.0600700378418	-448.1729736328125	-1001.600158691406	511.8093566894531	-200.4923400878906	-1347.990478515625	88.01097869873047	-316.6643371582031	-1080.251708984375	411.63134765625	-223.7291870117188	-1093.385375976562	488.9106750488281	-216.5697326660156	-1289.219604492188	132.9783172607422	-405.6538391113281	-1252.950805664062	428.2691650390625	-238.1889953613281	-1281.243530273438	218.0714874267578	-259.5906066894531	-1287.194702148438	477.4231567382812	-296.4777221679688	-1318.196655273438	457.3580322265625	-321.9617919921875	-1312.894165039062	475.6159362792969	-268.3662109375	-1361.2265625	91.10556030273438	-369.6873779296875
120	0.595	-955.8524169921876	1392.34521484375	-546.7254638671875	-911.1964721679688	1396.669311523438	-239.587646484375	-1025.321655273438	956.7467041015624	-511.0140075683594	-967.5569458007812	951.0308227539062	-234.8285064697266	-979.5836791992188	906.7686767578124	-494.3676147460938	-1351.691528320312	125.7145690917969	-336.4869384765625	-946.955810546875	908.9784545898438	-259.3556213378906	-1122.278076171875	845.7635498046875	-514.1771850585938	-1077.961669921875	830.7822265625	-191.2230682373047	-1135.551391601562	965.138427734375	-359.9888610839844	-1047.001220703125	609.9978637695312	-512.736572265625	-1217.905517578125	297.5480041503906	-438.9978942871094	-1120.200805664062	611.1226196289062	-487.890869140625	-1034.9453125	514.99462890625	-484.4788818359375	-1257.12255859375	288.9925842285156	-201.3983306884766	-1163.265502929688	376.0119934082031	-467.3901062011719	-1111.480590820312	516.3516235351562	-463.4938354492188	-863.9305419921875	672.04052734375	-200.4129028320312	-1110.657836914062	62.39095306396484	-387.9419555664062	-934.7158813476562	641.4456176757812	-183.8311004638672	-824.0099487304688	581.7450561523438	-222.9202270507812	-898.4242553710938	547.8343505859375	-198.8607177734375	-1081.761352539062	439.7024536132812	-470.3445434570312	-858.5881958007812	498.037841796875	-204.5763702392578	-1093.566162109375	332.6923522949219	-459.5687866210938	-1151.25244140625	251.3440704345703	-434.3023681640625	-944.7359008789062	436.0483703613281	-207.2764892578125	-1184.429565429688	60.62660598754883	-448.2442321777344	-971.0293579101562	515.8370971679688	-202.0260162353516	-1345.6689453125	94.40860748291016	-317.2810363769531	-1045.311157226562	411.3780212402344	-224.2300262451172	-1061.273803710938	488.8080139160156	-216.4999237060547	-1286.327026367188	137.5977020263672	-406.4323120117188	-1218.448364257812	421.0731506347656	-236.8050537109375	-1235.206787109375	209.1932830810547	-257.4996032714844	-1255.992797851562	467.3903198242188	-296.18310546875	-1286.229858398438	445.8901977539062	-320.6959228515625	-1281.307861328125	464.3388977050781	-267.618408203125	-1358.547485351562	97.58133697509766	-370.6952514648438
121	0.6	-931.1611328125	1397.241943359375	-545.9088134765625	-891.8875122070312	1400.9296875	-238.9143981933594	-1001.360961914062	959.4901733398438	-511.4520568847656	-945.3857421875	954.802001953125	-235.3014678955078	-956.347900390625	909.0949096679688	-493.8821716308594	-1348.612670898438	132.7133331298828	-337.1004333496094	-924.3682250976562	913.1196899414062	-259.1271057128906	-1099.6572265625	848.9474487304688	-514.197998046875	-1055.015747070312	835.5671997070312	-191.0278778076172	-1110.440185546875	968.7872924804688	-361.0101928710938	-1032.42724609375	612.34033203125	-511.8907470703125	-1212.72412109375	303.3970947265625	-438.9340209960938	-1105.649169921875	616.5115966796875	-487.6685485839844	-1024.400634765625	516.6343994140625	-482.9764099121094	-1215.418334960938	278.9407958984375	-200.2618103027344	-1156.944091796875	380.9512023925781	-466.6865234375	-1101.042358398438	521.2393798828125	-462.6913757324219	-837.802978515625	680.1979370117188	-201.0081481933594	-1110.24853515625	62.30778121948242	-388.2637634277344	-907.9050903320312	647.9916381835938	-184.1806640625	-795.3046264648438	590.966796875	-223.6870269775391	-868.8589477539062	555.2259521484375	-199.4357147216797	-1073.629638671875	443.0650024414062	-469.8603210449219	-827.5763549804688	506.3486328125	-205.6246185302734	-1087.683959960938	336.4277038574219	-459.408935546875	-1146.287109375	255.97998046875	-434.6504821777344	-911.0917358398438	440.5087280273438	-207.6506042480469	-1186.058349609375	61.30868530273438	-448.7649536132812	-940.654296875	519.5037231445312	-203.2634735107422	-1342.998291015625	101.6480941772461	-318.2380065917969	-1010.585998535156	411.6761779785156	-224.2125244140625	-1030.3408203125	488.3201904296875	-217.4745483398438	-1282.655151367188	142.972412109375	-406.9225463867188	-1184.00732421875	412.9034118652344	-236.7138366699219	-1188.661987304688	200.6458129882812	-256.8955993652344	-1225.414672851562	456.8458251953125	-294.5819702148438	-1252.606567382812	434.749267578125	-320.9578247070312	-1249.633666992188	452.7024536132812	-267.0115661621094	-1355.900268554688	104.118408203125	-371.725830078125
122	0.605	-906.3710327148438	1402.101806640625	-544.7319946289062	-872.7012329101562	1405.236450195312	-237.9441986083984	-977.1019287109376	962.5294189453124	-511.2737426757812	-922.9974975585938	958.9923095703124	-235.7410125732422	-932.78564453125	911.421875	-493.373779296875	-1344.515502929688	139.8873443603516	-338.9949035644531	-901.654052734375	917.6229858398438	-258.9825744628906	-1076.626586914062	852.4887084960938	-514.0230102539062	-1031.444580078125	839.2871704101562	-191.8430633544922	-1087.9267578125	971.7819213867188	-362.3125610351562	-1017.224304199219	615.2468872070312	-511.3918151855469	-1206.06982421875	309.4698181152344	-439.2669067382812	-1090.9111328125	621.8807983398438	-487.1609191894531	-1013.18798828125	519.4581909179688	-482.3069152832031	-1173.201782226562	269.37255859375	-199.2075042724609	-1149.642211914062	386.8684387207031	-466.7945861816406	-1090.77783203125	526.4844970703125	-462.3865661621094	-811.7987670898438	688.326171875	-201.6902008056641	-1109.645263671875	62.18982696533203	-388.5711364746094	-880.6910400390625	654.5389404296875	-185.1353149414062	-767.05517578125	600.3467407226562	-224.4125061035156	-839.60595703125	562.3443603515625	-201.1482086181641	-1064.7255859375	447.4390258789062	-469.1261901855469	-796.6237182617188	514.4344482421875	-206.5598602294922	-1080.771850585938	340.7164001464844	-459.6561279296875	-1140.797973632812	261.1876525878906	-435.63720703125	-877.5527954101562	444.1473083496094	-212.0037841796875	-1181.915161132812	61.90410232543945	-448.5647277832031	-911.5350952148438	522.9754028320312	-204.3315277099609	-1339.148803710938	108.7088623046875	-319.6333312988281	-975.732666015625	412.1016845703125	-224.0274353027344	-999.1052856445312	487.6211853027344	-217.9103088378906	-1278.860473632812	148.9821472167969	-408.6037292480469	-1149.671020507812	404.29931640625	-236.272705078125	-1142.0361328125	192.6419372558594	-255.0843658447266	-1194.2080078125	446.4755554199219	-293.888916015625	-1219.496459960938	422.148193359375	-320.1887817382812	-1218.588134765625	441.3502807617188	-266.4329528808594	-1352.107055664062	111.1079483032227	-372.5306091308594
